<?xml version="1.0" encoding="UTF-8"?>
<svg width="14px" height="16px" viewBox="0 0 14 16" version="1.1" xmlns="http://www.w3.org/2000/svg" xmlns:xlink="http://www.w3.org/1999/xlink">
    <!-- Generator: Sketch 63 (92445) - https://sketch.com -->
    <title>数据填报</title>
    <desc>Created with Sketch.</desc>
    <g id="页面-1" stroke="none" stroke-width="1" fill="none" fill-rule="evenodd">
        <g id="1_0数据填报" transform="translate(-17.000000, -84.000000)" fill-rule="nonzero">
            <g id="编组" transform="translate(-20.000000, 48.000000)">
                <g id="编组-7" transform="translate(0.000000, 24.000000)">
                    <g id="数据填报" transform="translate(36.000000, 12.000000)">
                        <rect id="矩形" fill="#000000" opacity="0" x="0" y="0" width="16" height="16"></rect>
                        <path d="M2.48888889,13.8666667 L2.48888889,4.8 C2.48888889,4.35555556 2.84444445,4 3.28888889,4 L4,4 L4,4.97777778 C4,5.15555556 4.17777778,5.33333334 4.35555556,5.33333333 L10.2222222,5.33333333 C10.4,5.33333333 10.5777778,5.15555555 10.5777778,4.97777778 L10.5777778,4.08888889 L11.0222222,4.08888889 C11.4666667,4.08888889 11.8222222,4.44444444 11.8222222,4.88888889 L11.8222222,7.11111111 L12.7111111,7.11111111 L12.7111111,4.8 C12.7111111,3.91111111 12,3.2 11.1111111,3.2 L10.6666667,3.2 L10.6666667,3.02222222 C10.6666667,2.84444444 10.4888889,2.66666666 10.3111111,2.66666667 L8.88888889,2.66666667 L8.88888889,2.22222222 C8.88888889,1.24444444 8.17777778,0.444444437 7.2,0.444444437 C6.22222222,0.444444437 5.42222222,1.24444444 5.42222222,2.22222222 L5.42222222,2.66666667 L4.26666667,2.66666667 C4.08888889,2.66666667 3.91111111,2.84444445 3.91111111,3.02222222 L3.91111111,3.2 L3.2,3.2 C2.31111111,3.2 1.6,3.91111111 1.6,4.8 L1.6,13.8666667 C1.6,14.7555556 2.31111111,15.4666667 3.2,15.4666667 L7.2,15.4666667 L7.2,14.5777778 L3.2,14.5777778 C2.84444444,14.6666667 2.48888889,14.3111111 2.48888889,13.8666667 Z M4.62222222,3.37777778 L6.22222222,3.37777778 L6.22222222,2.22222222 C6.22222222,1.68888889 6.75555555,1.24444444 7.28888889,1.24444444 C7.55555556,1.24444444 7.73333333,1.33333333 7.91111111,1.51111111 C8.08888889,1.68888889 8.17777778,1.95555555 8.17777778,2.22222222 L8.17777778,3.37777778 L9.77777778,3.37777778 L9.77777778,4.62222222 L4.62222222,4.62222222 L4.62222222,3.37777778 Z M3.55555556,10.8444444 L7.73333333,10.8444444 L7.73333333,11.5555556 L3.55555556,11.5555556 L3.55555556,10.8444444 Z M3.55555556,12.2666667 L6.22222222,12.2666667 L6.22222222,12.9777778 L3.55555556,12.9777778 L3.55555556,12.2666667 Z M8.8,9.33333333 L8.8,6.84444444 L6.31111111,6.84444444 L6.31111111,7.55555556 L7.55555556,7.55555556 L6.04444444,9.06666667 L4.97777778,8.08888889 L3.28888889,9.77777778 L3.82222222,10.3111111 L4.97777778,9.06666667 L6.04444444,10.0444444 L8.08888889,8 L8.08888889,9.33333333 L8.8,9.33333333 Z M14.2222222,9.24444444 L13.3333333,8.44444444 C13.1555555,8.35555555 12.9777778,8.26666667 12.8,8.26666667 C12.5333333,8.26666667 12.3555556,8.35555556 12.1777778,8.53333333 L9.06666667,11.7333333 L8.97777778,11.8222222 L8.17777778,14.0444444 C8.08888889,14.1333333 8.17777778,14.3111111 8.26666667,14.4 C8.35555556,14.4888889 8.44444445,14.4888889 8.53333333,14.4888889 L8.62222222,14.4888889 L10.7555556,13.6 C10.8444445,13.6 10.8444445,13.5111111 10.8444444,13.5111111 L13.9555556,10.3111111 C14.4888889,10.0444444 14.4888889,9.51111111 14.2222222,9.24444444 L14.2222222,9.24444444 Z M9.51111111,12.6222222 L10.1333333,13.2444444 L9.15555556,13.6 L9.51111111,12.6222222 Z M13.6,9.86666667 L10.7555556,12.8 L9.86666667,11.9111111 L12.7111111,8.97777778 C12.8,8.88888889 12.8888889,8.88888889 12.8888889,8.88888889 L13.6888889,9.68888889 C13.6888889,9.77777778 13.6888889,9.77777778 13.6,9.86666667 L13.6,9.86666667 Z" id="形状" fill="#1890FF"></path>
                    </g>
                </g>
            </g>
        </g>
    </g>
</svg>